<svg width="160" height="36" viewBox="0 0 160 36" fill="none" xmlns="http://www.w3.org/2000/svg">
<path d="M2.52 27.17C1.72 27.17 1.12 26.95 0.72 26.51C0.32 26.07 0.12 25.62 0.12 25.16C0.12 24.62 0.22 24.21 0.42 23.93C0.62 23.65 1.01 23.44 1.59 23.3C2.35 23.14 3.14 22.94 3.96 22.7C4.8 22.46 5.6 22.21 6.36 21.95C7.14 21.67 7.82 21.39 8.4 21.11C8.98 20.81 9.4 20.53 9.66 20.27C9.34 20.09 8.83 19.88 8.13 19.64C7.43 19.38 6.65 19.08 5.79 18.74C4.95 18.38 4.14 17.96 3.36 17.48C2.58 17 1.94 16.44 1.44 15.8C0.94 15.16 0.69 14.43 0.69 13.61C0.69 12.47 0.98 11.4 1.56 10.4C2.14 9.4 2.91 8.47 3.87 7.61C4.83 6.75 5.87 5.96 6.99 5.24C8.13 4.52 9.26 3.87 10.38 3.29C11.52 2.69 12.54 2.16 13.44 1.7C13.78 1.5 14.1 1.37 14.4 1.31C14.72 1.23 15.01 1.19 15.27 1.19C16.17 1.19 16.79 1.41 17.13 1.85C17.47 2.29 17.64 2.74 17.64 3.2C17.64 3.52 17.49 3.9 17.19 4.34C16.89 4.76 16.41 5.15 15.75 5.51C15.11 5.87 14.26 6.13 13.2 6.29C13.02 6.31 12.86 6.33 12.72 6.35C11.92 6.75 11.06 7.23 10.14 7.79C9.22 8.35 8.35 8.94 7.53 9.56C6.73 10.16 6.07 10.76 5.55 11.36C5.03 11.96 4.77 12.5 4.77 12.98C4.77 13.52 4.99 14.01 5.43 14.45C5.87 14.87 6.43 15.26 7.11 15.62C7.81 15.96 8.54 16.29 9.3 16.61C10.08 16.93 10.81 17.26 11.49 17.6C12.19 17.92 12.76 18.28 13.2 18.68C13.64 19.08 13.86 19.53 13.86 20.03C13.86 20.71 13.63 21.36 13.17 21.98C12.71 22.6 12.11 23.18 11.37 23.72C10.63 24.24 9.82 24.71 8.94 25.13C8.06 25.55 7.19 25.91 6.33 26.21C5.49 26.53 4.73 26.77 4.05 26.93C3.37 27.09 2.86 27.17 2.52 27.17ZM17.4523 35.63C16.8923 35.63 16.4523 35.43 16.1323 35.03C15.8323 34.65 15.6823 34.06 15.6823 33.26C15.6823 32.16 15.7823 30.85 15.9823 29.33C16.1823 27.81 16.4523 26.2 16.7923 24.5C17.1323 22.8 17.5023 21.13 17.9023 19.49C18.3823 17.61 18.8523 15.9 19.3123 14.36C19.7923 12.82 20.2723 11.59 20.7523 10.67C21.2523 9.73 21.7523 9.26 22.2523 9.26C22.7123 9.26 23.1123 9.43 23.4523 9.77C23.8123 10.09 23.9923 10.57 23.9923 11.21C23.9923 11.67 23.8723 12.33 23.6323 13.19C23.3923 14.03 23.0923 15.08 22.7323 16.34C23.4123 15.22 24.1123 14.12 24.8323 13.04C25.5723 11.96 26.3223 10.98 27.0823 10.1C27.8423 9.22 28.5823 8.52 29.3023 8C30.0223 7.48 30.7023 7.22 31.3423 7.22C32.1023 7.22 32.7723 7.44 33.3523 7.88C33.9523 8.32 34.4223 8.92 34.7623 9.68C35.1023 10.44 35.2723 11.3 35.2723 12.26C35.2723 14.04 34.9523 15.77 34.3123 17.45C33.6723 19.11 32.7823 20.6 31.6423 21.92C30.5223 23.24 29.2123 24.29 27.7123 25.07C26.2123 25.83 24.5923 26.21 22.8523 26.21C22.3523 26.21 21.8923 26.16 21.4723 26.06C21.0723 25.98 20.7023 25.88 20.3623 25.76C20.1223 27.04 19.8923 28.35 19.6723 29.69C19.4723 31.05 19.2623 32.48 19.0423 33.98C18.8023 35.08 18.2723 35.63 17.4523 35.63ZM31.6423 10.76C31.2023 10.76 30.6423 11.06 29.9623 11.66C29.3023 12.26 28.5823 13.05 27.8023 14.03C27.0223 14.99 26.2323 16.04 25.4323 17.18C24.6523 18.3 23.9023 19.4 23.1823 20.48C22.4823 21.56 21.8823 22.5 21.3823 23.3C22.9023 23.14 24.2423 22.74 25.4023 22.1C26.5623 21.44 27.5523 20.64 28.3723 19.7C29.1923 18.76 29.8523 17.77 30.3523 16.73C30.8723 15.67 31.2523 14.64 31.4923 13.64C31.7323 12.64 31.8523 11.77 31.8523 11.03C31.8523 10.85 31.7823 10.76 31.6423 10.76ZM48.529 27.35C48.069 27.35 47.649 27.16 47.269 26.78C46.909 26.42 46.729 25.81 46.729 24.95C46.729 24.31 46.779 23.42 46.879 22.28C46.999 21.12 47.219 19.63 47.539 17.81C46.839 19.25 46.109 20.53 45.349 21.65C44.589 22.77 43.839 23.65 43.099 24.29C42.379 24.91 41.689 25.22 41.029 25.22C39.969 25.22 39.129 24.9 38.509 24.26C37.889 23.6 37.579 22.37 37.579 20.57C37.579 19.71 37.649 18.74 37.789 17.66C37.949 16.58 38.149 15.5 38.389 14.42C38.629 13.34 38.869 12.38 39.109 11.54C39.369 10.68 39.599 10.04 39.799 9.62C39.959 9.26 40.159 8.98 40.399 8.78C40.659 8.58 40.989 8.48 41.389 8.48C42.029 8.48 42.519 8.69 42.859 9.11C43.199 9.53 43.369 9.96 43.369 10.4C43.369 10.74 43.289 11.23 43.129 11.87C42.989 12.51 42.809 13.22 42.589 14C42.389 14.78 42.179 15.58 41.959 16.4C41.739 17.22 41.549 17.99 41.389 18.71C41.249 19.43 41.179 20.04 41.179 20.54C41.179 21.16 41.419 21.47 41.899 21.47C42.179 21.47 42.539 21.2 42.979 20.66C43.439 20.12 43.919 19.4 44.419 18.5C44.939 17.58 45.459 16.58 45.979 15.5C46.519 14.4 47.009 13.29 47.449 12.17C47.909 11.03 48.299 9.98 48.619 9.02C48.819 8.42 49.089 8 49.429 7.76C49.769 7.52 50.159 7.4 50.599 7.4C51.279 7.4 51.799 7.59 52.159 7.97C52.539 8.35 52.729 8.89 52.729 9.59C52.729 9.91 52.679 10.45 52.579 11.21C52.479 11.97 52.349 12.86 52.189 13.88C52.049 14.9 51.879 15.98 51.679 17.12C51.479 18.26 51.279 19.38 51.079 20.48C50.899 21.58 50.719 22.59 50.539 23.51C50.359 24.41 50.209 25.13 50.089 25.67C49.889 26.47 49.649 26.95 49.369 27.11C49.089 27.27 48.809 27.35 48.529 27.35ZM56.2931 27.32C55.7931 27.32 55.3631 27.14 55.0031 26.78C54.6631 26.42 54.4931 25.9 54.4931 25.22C54.4931 24.92 54.5331 24.43 54.6131 23.75C54.7131 23.05 54.8331 22.25 54.9731 21.35C55.1331 20.45 55.2831 19.51 55.4231 18.53C55.5831 17.55 55.7131 16.62 55.8131 15.74C55.9331 14.86 56.0131 14.11 56.0531 13.49C56.0931 12.73 56.2931 12.19 56.6531 11.87C57.0131 11.53 57.4431 11.36 57.9431 11.36C58.3431 11.36 58.7031 11.46 59.0231 11.66C59.3631 11.84 59.5731 12.23 59.6531 12.83C59.7531 13.41 59.7631 14.25 59.6831 15.35C60.5631 13.75 61.4531 12.32 62.3531 11.06C63.2731 9.8 64.2331 8.8 65.2331 8.06C66.8931 6.8 68.3931 6.17 69.7331 6.17C70.4931 6.17 70.9931 6.34 71.2331 6.68C71.4731 7.02 71.5931 7.37 71.5931 7.73C71.5931 7.97 71.5331 8.19 71.4131 8.39C71.3131 8.59 71.0931 8.8 70.7531 9.02C70.4131 9.24 69.8931 9.53 69.1931 9.89C68.2531 10.37 67.3231 11 66.4031 11.78C65.5031 12.56 64.6031 13.56 63.7031 14.78C62.8031 16 61.8931 17.5 60.9731 19.28C60.0531 21.06 59.1031 23.18 58.1231 25.64C57.9431 26.32 57.6831 26.77 57.3431 26.99C57.0231 27.21 56.6731 27.32 56.2931 27.32ZM89.7368 10.88C89.7368 11.12 89.6568 11.33 89.4968 11.51C89.3368 11.69 89.1368 11.83 88.8968 11.93C88.5568 12.07 87.9668 12.25 87.1268 12.47C86.2868 12.69 85.2668 12.94 84.0668 13.22C82.8868 13.5 81.6168 13.79 80.2568 14.09C78.8968 14.37 77.5368 14.64 76.1768 14.9C75.6568 16.82 75.1268 18.8 74.5868 20.84C74.0468 22.86 73.5068 24.85 72.9668 26.81C72.7668 27.51 72.5268 28.04 72.2468 28.4C71.9668 28.78 71.4868 28.97 70.8068 28.97C70.0668 28.97 69.5668 28.73 69.3068 28.25C69.0668 27.79 69.0368 27.16 69.2168 26.36C69.7368 24.18 70.2168 22.15 70.6568 20.27C71.1168 18.39 71.4868 16.87 71.7668 15.71C70.5668 15.91 69.5168 16.07 68.6168 16.19C67.7168 16.29 67.0768 16.33 66.6968 16.31C66.2768 16.27 65.9268 16.1 65.6468 15.8C65.3668 15.5 65.2368 15.13 65.2568 14.69C65.2968 14.29 65.4768 13.95 65.7968 13.67C66.1168 13.37 66.4968 13.19 66.9368 13.13C67.5568 13.07 68.3568 12.98 69.3368 12.86C70.3168 12.74 71.3968 12.6 72.5768 12.44C72.8368 11.42 73.1368 10.37 73.4768 9.29C73.8168 8.19 74.1668 7.14 74.5268 6.14C74.9068 5.12 75.2668 4.23 75.6068 3.47C75.9468 2.71 76.2568 2.16 76.5368 1.82C76.7568 1.56 77.0268 1.36 77.3468 1.22C77.6868 1.08 78.0168 1.01 78.3368 1.01C78.7568 1.01 79.0968 1.16 79.3568 1.46C79.6168 1.76 79.7468 2.11 79.7468 2.51C79.7468 2.67 79.7368 2.84 79.7168 3.02C79.6968 3.18 79.6568 3.34 79.5968 3.5C79.2168 4.5 78.8068 5.71 78.3668 7.13C77.9468 8.55 77.5068 10.11 77.0468 11.81C78.5468 11.59 80.0168 11.37 81.4568 11.15C82.9168 10.91 84.2368 10.69 85.4168 10.49C86.6168 10.27 87.5768 10.08 88.2968 9.92C88.6968 9.78 89.0368 9.81 89.3168 10.01C89.5968 10.19 89.7368 10.48 89.7368 10.88ZM98.7574 20.63C99.3774 20.63 99.8174 20.8 100.077 21.14C100.337 21.46 100.467 21.8 100.467 22.16C100.467 22.66 100.217 23.19 99.7174 23.75C99.2174 24.31 98.5674 24.83 97.7674 25.31C96.9874 25.77 96.1474 26.15 95.2474 26.45C94.3474 26.75 93.4874 26.9 92.6674 26.9C91.4474 26.9 90.2774 26.57 89.1574 25.91C88.0574 25.23 87.1574 24.28 86.4574 23.06C85.7774 21.84 85.4374 20.39 85.4374 18.71C85.4374 17.33 85.6974 15.96 86.2174 14.6C86.7574 13.24 87.4674 11.93 88.3474 10.67C89.2474 9.41 90.2274 8.24 91.2874 7.16C92.3674 6.08 93.4474 5.14 94.5274 4.34C95.6274 3.54 96.6374 2.92 97.5574 2.48C98.4774 2.02 99.2174 1.79 99.7774 1.79C100.477 1.79 100.997 1.97 101.337 2.33C101.697 2.67 101.877 3.15 101.877 3.77C101.877 4.27 101.777 4.66 101.577 4.94C101.397 5.2 101.107 5.43 100.707 5.63C99.4274 6.29 98.1274 7.09 96.8074 8.03C95.5074 8.97 94.3174 10.01 93.2374 11.15C92.1574 12.27 91.2874 13.45 90.6274 14.69C89.9674 15.93 89.6374 17.19 89.6374 18.47C89.6374 19.87 89.9174 20.93 90.4774 21.65C91.0374 22.37 91.7974 22.73 92.7574 22.73C93.2374 22.73 93.7574 22.63 94.3174 22.43C94.8774 22.21 95.4274 21.96 95.9674 21.68C96.5274 21.4 97.0474 21.16 97.5274 20.96C98.0274 20.74 98.4374 20.63 98.7574 20.63ZM128.509 26.42C127.929 26.42 127.489 26.24 127.189 25.88C126.909 25.52 126.769 25.03 126.769 24.41C126.769 23.91 126.789 23.48 126.829 23.12C126.869 22.76 126.949 22.38 127.069 21.98C127.189 21.56 127.339 21.05 127.519 20.45C127.719 19.83 127.969 19.04 128.269 18.08C128.449 17.52 128.669 16.79 128.929 15.89C129.209 14.97 129.489 13.97 129.769 12.89C130.049 11.79 130.279 10.69 130.459 9.59C130.659 8.47 130.759 7.44 130.759 6.5C130.759 5.86 130.619 5.27 130.339 4.73C128.479 6.57 126.719 8.97 125.059 11.93C123.419 14.89 121.959 18.33 120.679 22.25C120.299 23.23 119.859 23.89 119.359 24.23C118.859 24.55 118.379 24.71 117.919 24.71C117.779 24.71 117.569 24.63 117.289 24.47C117.009 24.29 116.749 23.97 116.509 23.51C116.269 23.05 116.149 22.4 116.149 21.56C116.149 21.36 116.199 21.11 116.299 20.81C116.399 20.49 116.549 20.15 116.749 19.79C116.929 18.75 117.059 17.64 117.139 16.46C117.239 15.26 117.299 14.07 117.319 12.89C117.359 11.69 117.379 10.57 117.379 9.53C117.379 8.73 117.319 8.03 117.199 7.43C116.219 8.67 115.289 10.17 114.409 11.93C113.529 13.69 112.729 15.56 112.009 17.54C111.309 19.52 110.729 21.46 110.269 23.36C110.149 23.82 110.009 24.25 109.849 24.65C109.689 25.03 109.449 25.34 109.129 25.58C108.829 25.8 108.389 25.91 107.809 25.91C107.169 25.91 106.689 25.65 106.369 25.13C106.049 24.61 105.889 23.92 105.889 23.06C105.889 22.4 106.029 21.55 106.309 20.51C106.589 19.45 106.969 18.3 107.449 17.06C107.929 15.8 108.479 14.52 109.099 13.22C109.739 11.9 110.409 10.63 111.109 9.41C111.809 8.19 112.519 7.1 113.239 6.14C113.979 5.16 114.679 4.39 115.339 3.83C116.019 3.25 116.639 2.96 117.199 2.96C117.219 2.96 117.249 2.96 117.289 2.96C117.729 2.96 118.129 3 118.489 3.08C118.869 3.14 119.199 3.35 119.479 3.71C119.779 4.05 120.039 4.62 120.259 5.42C120.479 6.22 120.669 7.35 120.829 8.81C120.869 9.17 120.899 9.6 120.919 10.1C120.939 10.58 120.949 11.08 120.949 11.6C121.609 10.12 122.329 8.73 123.109 7.43C123.909 6.13 124.729 4.98 125.569 3.98C126.429 2.98 127.279 2.2 128.119 1.64C128.959 1.08 129.739 0.799999 130.459 0.799999C131.299 0.799999 132.079 1.01 132.799 1.43C133.519 1.83 134.099 2.51 134.539 3.47C134.979 4.43 135.199 5.74 135.199 7.4C135.199 9.16 135.039 10.87 134.719 12.53C134.399 14.17 133.999 15.72 133.519 17.18C133.039 18.64 132.559 19.98 132.079 21.2C131.599 22.4 131.199 23.44 130.879 24.32C130.619 24.94 130.319 25.45 129.979 25.85C129.639 26.23 129.149 26.42 128.509 26.42ZM144.686 27.17C143.886 27.17 143.286 26.95 142.886 26.51C142.486 26.07 142.286 25.62 142.286 25.16C142.286 24.62 142.386 24.21 142.586 23.93C142.786 23.65 143.176 23.44 143.756 23.3C144.516 23.14 145.306 22.94 146.126 22.7C146.966 22.46 147.766 22.21 148.526 21.95C149.306 21.67 149.986 21.39 150.566 21.11C151.146 20.81 151.566 20.53 151.826 20.27C151.506 20.09 150.996 19.88 150.296 19.64C149.596 19.38 148.816 19.08 147.956 18.74C147.116 18.38 146.306 17.96 145.526 17.48C144.746 17 144.106 16.44 143.606 15.8C143.106 15.16 142.856 14.43 142.856 13.61C142.856 12.47 143.146 11.4 143.726 10.4C144.306 9.4 145.076 8.47 146.036 7.61C146.996 6.75 148.036 5.96 149.156 5.24C150.296 4.52 151.426 3.87 152.546 3.29C153.686 2.69 154.706 2.16 155.606 1.7C155.946 1.5 156.266 1.37 156.566 1.31C156.886 1.23 157.176 1.19 157.436 1.19C158.336 1.19 158.956 1.41 159.296 1.85C159.636 2.29 159.806 2.74 159.806 3.2C159.806 3.52 159.656 3.9 159.356 4.34C159.056 4.76 158.576 5.15 157.916 5.51C157.276 5.87 156.426 6.13 155.366 6.29C155.186 6.31 155.026 6.33 154.886 6.35C154.086 6.75 153.226 7.23 152.306 7.79C151.386 8.35 150.516 8.94 149.696 9.56C148.896 10.16 148.236 10.76 147.716 11.36C147.196 11.96 146.936 12.5 146.936 12.98C146.936 13.52 147.156 14.01 147.596 14.45C148.036 14.87 148.596 15.26 149.276 15.62C149.976 15.96 150.706 16.29 151.466 16.61C152.246 16.93 152.976 17.26 153.656 17.6C154.356 17.92 154.926 18.28 155.366 18.68C155.806 19.08 156.026 19.53 156.026 20.03C156.026 20.71 155.796 21.36 155.336 21.98C154.876 22.6 154.276 23.18 153.536 23.72C152.796 24.24 151.986 24.71 151.106 25.13C150.226 25.55 149.356 25.91 148.496 26.21C147.656 26.53 146.896 26.77 146.216 26.93C145.536 27.09 145.026 27.17 144.686 27.17Z" fill="#151515"/>
</svg>
