<svg width="19" height="14" viewBox="0 0 19 14" fill="none" xmlns="http://www.w3.org/2000/svg">
<path d="M15.5416 7.56355H12.507V10.598H10.9896V7.56355H7.95493V6.04632H10.9896V3.0113H12.507V6.04632H15.5416V7.56355ZM7.19625 11.6114C4.54145 11.6114 2.38953 9.45892 2.38953 6.80465C2.38953 4.15039 4.54145 1.99793 7.19625 1.99793C7.24557 1.99793 7.29434 2.00281 7.34365 2.00443C6.03982 3.19338 5.21666 4.90093 5.21666 6.80465C5.21666 8.70783 6.03982 10.4148 7.34311 11.6043C7.2938 11.6054 7.24557 11.6114 7.19625 11.6114ZM11.7196 0.301758C10.9257 0.301758 10.1681 0.451324 9.46468 0.71144C8.75803 0.448615 7.99448 0.301758 7.19625 0.301758C3.60449 0.301758 0.693359 3.21343 0.693359 6.80465C0.693359 10.3964 3.60449 13.3075 7.19625 13.3075C7.9934 13.3075 8.75587 13.1591 9.46197 12.8968C10.1665 13.158 10.9246 13.3075 11.7196 13.3075C15.3113 13.3075 18.2225 10.3964 18.2225 6.80465C18.2225 3.21343 15.3113 0.301758 11.7196 0.301758Z" fill="#151618"/>
</svg>
