<svg width="16" height="16" viewBox="0 0 16 16" fill="none" xmlns="http://www.w3.org/2000/svg">
<path d="M13.2695 13.0529H11.0627V9.59491C11.0627 8.7703 11.046 7.70912 9.91274 7.70912C8.76215 7.70912 8.58642 8.60638 8.58642 9.53406V13.0529H6.37962V5.94194H8.49949V6.91122H8.52805C8.82424 6.35238 9.54453 5.76249 10.6206 5.76249C12.8566 5.76249 13.2701 7.23411 13.2701 9.1497L13.2695 13.0529ZM3.88718 4.96893C3.17683 4.96893 2.60619 4.39395 2.60619 3.6867C2.60619 2.98008 3.17745 2.40571 3.88718 2.40571C4.59505 2.40571 5.16879 2.98008 5.16879 3.6867C5.16879 4.39395 4.59442 4.96893 3.88718 4.96893ZM4.99369 13.0529H2.78067V5.94194H4.99369V13.0529ZM14.3735 0.353516H1.67292C1.06502 0.353516 0.573242 0.83412 0.573242 1.42711V14.1824C0.573242 14.776 1.06502 15.256 1.67292 15.256H14.3717C14.979 15.256 15.4757 14.776 15.4757 14.1824V1.42711C15.4757 0.83412 14.979 0.353516 14.3717 0.353516H14.3735Z" fill="#151618"/>
</svg>
