<svg width="16" height="16" viewBox="0 0 16 16" fill="none" xmlns="http://www.w3.org/2000/svg">
<g clip-path="url(#clip0_390_1637)">
<path d="M0.782348 5.53376C0.595014 5.25842 0.614348 5.25842 1.00101 4.91909C1.82235 4.19776 2.59701 3.40842 3.49168 2.77776C4.30168 2.20976 5.37568 1.84309 6.10968 2.74642C6.78568 3.57909 6.80168 4.84109 6.97301 5.84642C7.14435 6.88909 7.30835 7.95576 7.67368 8.95309C7.77501 9.23376 7.96901 9.76442 8.31901 9.80909C8.77101 9.87109 9.23102 9.07842 9.44102 8.78242C9.98568 7.99576 10.7243 6.93642 10.631 5.92509C10.539 4.85042 9.37901 5.05242 8.65368 5.30909C8.77035 4.10309 9.89235 2.74709 10.9737 2.28909C12.1203 1.81309 13.8243 1.82109 14.4003 3.11376C15.0157 4.51509 14.4623 6.14242 13.7923 7.41242C13.061 8.79109 12.1197 10.0671 11.1137 11.2591C10.2263 12.3178 9.17635 13.4791 7.85368 13.9851C6.34235 14.5611 5.44701 13.4384 4.93235 12.1384C4.37035 10.7231 4.09101 9.13442 3.68568 7.66042C3.51501 7.03776 3.31235 6.32909 2.90768 5.81509C2.37968 5.15176 1.77968 5.77509 1.25835 6.13309C1.07901 5.95509 0.931014 5.72842 0.782348 5.53376Z" fill="#565454"/>
</g>
<defs>
<clipPath id="clip0_390_1637">
<rect width="16" height="16" fill="white"/>
</clipPath>
</defs>
</svg>
