<svg width="16" height="16" viewBox="0 0 16 16" fill="none" xmlns="http://www.w3.org/2000/svg">
<g clip-path="url(#clip0_390_1629)">
<path d="M14.3617 4.33184C14.6663 5.51984 14.6663 7.99984 14.6663 7.99984C14.6663 7.99984 14.6663 10.4798 14.3617 11.6678C14.1923 12.3245 13.697 12.8412 13.0697 13.0158C11.9303 13.3332 7.99967 13.3332 7.99967 13.3332C7.99967 13.3332 4.07101 13.3332 2.92967 13.0158C2.29967 12.8385 1.80501 12.3225 1.63767 11.6678C1.33301 10.4798 1.33301 7.99984 1.33301 7.99984C1.33301 7.99984 1.33301 5.51984 1.63767 4.33184C1.80701 3.67517 2.30234 3.1585 2.92967 2.98384C4.07101 2.6665 7.99967 2.6665 7.99967 2.6665C7.99967 2.6665 11.9303 2.6665 13.0697 2.98384C13.6997 3.16117 14.1943 3.67717 14.3617 4.33184ZM6.66634 10.3332L10.6663 7.99984L6.66634 5.6665V10.3332Z" fill="#565454"/>
</g>
<defs>
<clipPath id="clip0_390_1629">
<rect width="16" height="16" fill="white"/>
</clipPath>
</defs>
</svg>
